<svg width="55" height="23" viewBox="0 0 55 23" fill="none" xmlns="http://www.w3.org/2000/svg">
<g clip-path="url(#clip0_19_5127)">
<path d="M13.4985 23.0303C11.9652 23.0303 10.4942 22.7428 9.0856 22.1676C7.72375 21.6077 6.51786 20.8206 5.46791 19.8066C4.42314 18.7875 3.61229 17.6196 3.03532 16.3028C2.44276 14.9306 2.14648 13.5004 2.14648 12.0121C2.14648 10.5238 2.44276 9.09358 3.03532 7.72132C3.61229 6.40456 4.42314 5.2392 5.46791 4.22513C6.51786 3.20605 7.72375 2.41653 9.0856 1.85652C10.4942 1.27634 11.9652 0.986267 13.4985 0.986267C15.0319 0.986267 16.5055 1.27634 17.9193 1.85652C18.4911 2.08861 19.0368 2.36354 19.5566 2.68138V2.68892C19.6138 2.71922 19.6684 2.75199 19.7203 2.78733C20.079 3.04965 20.2583 3.39525 20.2583 3.82409C20.2583 4.18224 20.1284 4.48748 19.8685 4.73973C19.6086 4.99197 19.2942 5.11812 18.9251 5.11812C18.556 5.11812 18.2416 4.99197 17.9817 4.73973C17.7218 4.48748 17.5918 4.18224 17.5918 3.82409V3.77866C17.5918 3.4457 17.4593 3.08497 17.1942 2.69652C17.0071 2.43419 16.7134 2.18696 16.3132 1.9549H16.3054C16.2066 1.8994 16.1052 1.84897 16.0013 1.80354C15.9961 1.80354 15.9935 1.80102 15.9935 1.79598C15.4945 1.574 14.9773 1.4176 14.4419 1.32681C14.1301 1.30156 13.8156 1.28897 13.4985 1.28897C13.1815 1.28897 12.8696 1.30156 12.5629 1.32681C11.5754 1.49328 10.6605 1.88174 9.81849 2.49221C8.97641 3.09761 8.23834 3.88208 7.60419 4.84568C6.97527 5.80424 6.4841 6.89397 6.13063 8.11482C5.77718 9.33573 5.60045 10.6348 5.60045 12.0121C5.60045 13.8434 5.90452 15.5285 6.51266 17.0672C7.12602 18.6008 7.95244 19.8621 8.99202 20.8509C10.0316 21.8397 11.2089 22.4527 12.524 22.6898C12.8462 22.715 13.1711 22.7276 13.4985 22.7276C13.8312 22.7276 14.1587 22.715 14.4809 22.6898C15.401 22.5284 16.256 22.1752 17.0461 21.6304C17.8413 21.0805 18.5483 20.3742 19.1668 19.5115L21.1939 20.1169C20.2271 20.9846 19.1356 21.6682 17.9193 22.1676C16.5055 22.7428 15.0319 23.0303 13.4985 23.0303ZM47.0557 22.9244H25.942L40.6623 1.3949H31.1115C29.4273 1.47059 28.198 1.64465 27.4235 1.91706C27.1429 2.01293 26.9348 2.11383 26.7997 2.21976C26.7011 2.30048 26.6413 2.36858 26.6205 2.42408L26.6127 2.45437H26.5191V1.0922H44.5376L29.8171 22.6217H42.4633C44.1475 22.546 45.3768 22.372 46.1514 22.0995C46.4319 21.9986 46.64 21.8952 46.7751 21.7893C46.8737 21.7136 46.931 21.648 46.9467 21.5925L46.9622 21.5622H47.0557V22.9244Z" fill="#F5F5F5"/>
<path d="M14.3124 11.7966L13.1362 10.655L11.9601 11.7966L13.1362 12.9381L14.3124 11.7966Z" fill="#DEC649"/>
<path d="M52.5848 22.3962C52.9744 22.7745 53.6063 22.7745 53.9961 22.3962C54.3859 22.0179 54.3859 21.4046 53.9961 21.0263C53.6063 20.648 52.9744 20.648 52.5848 21.0263C52.195 21.4046 52.195 22.0179 52.5848 22.3962Z" fill="#DEC649"/>
</g>
<defs>
<clipPath id="clip0_19_5127">
<rect width="55" height="23" fill="white"/>
</clipPath>
</defs>
</svg>
