<svg width="18" height="19" viewBox="0 0 18 19" fill="none" xmlns="http://www.w3.org/2000/svg">
<path d="M12.75 3.125H5.25C3 3.125 1.5 4.25 1.5 6.875V12.125C1.5 14.75 3 15.875 5.25 15.875H12.75C15 15.875 16.5 14.75 16.5 12.125V6.875C16.5 4.25 15 3.125 12.75 3.125ZM13.1025 7.6925L10.755 9.5675C10.26 9.965 9.63 10.16 9 10.16C8.37 10.16 7.7325 9.965 7.245 9.5675L4.8975 7.6925C4.78275 7.59725 4.7093 7.4613 4.69252 7.31311C4.67575 7.16493 4.71695 7.01599 4.8075 6.8975C5.0025 6.6575 5.355 6.6125 5.595 6.8075L7.9425 8.6825C8.5125 9.14 9.48 9.14 10.05 8.6825L12.3975 6.8075C12.6375 6.6125 12.9975 6.65 13.185 6.8975C13.38 7.1375 13.3425 7.4975 13.1025 7.6925Z" fill="#F5F5F5"/>
</svg>
