<svg width="18" height="19" viewBox="0 0 18 19" fill="none" xmlns="http://www.w3.org/2000/svg">
<path fill-rule="evenodd" clip-rule="evenodd" d="M9 2C4.86 2 1.5 5.36 1.5 9.5C1.5 13.64 4.86 17 9 17C13.14 17 16.5 13.64 16.5 9.5C16.5 5.36 13.14 2 9 2ZM12.9825 11.9825C12.765 12.1025 12.585 12.155 12.435 12.1925C12.3075 12.2225 12.2025 12.2525 12.1125 12.3125C12.015 12.3725 12.0075 12.47 11.9925 12.56C11.9775 12.6425 11.97 12.71 11.91 12.755C11.8425 12.8 11.715 12.8075 11.5425 12.815C11.3175 12.83 11.0325 12.8375 10.6875 12.9425C10.5225 13.0025 10.3725 13.0925 10.2225 13.1825C9.9225 13.37 9.585 13.5725 8.9925 13.5725C8.4075 13.5725 8.07 13.37 7.77 13.1825C7.62 13.085 7.47 12.995 7.2975 12.935C7.01986 12.8527 6.73206 12.8098 6.4425 12.8075C6.27 12.8 6.15 12.7925 6.075 12.7475C6.015 12.71 6.0075 12.635 5.9925 12.5525C5.9775 12.4625 5.97 12.365 5.8725 12.305C5.7825 12.245 5.67 12.215 5.55 12.1775C5.4 12.14 5.22 12.095 5.0025 11.975C4.7475 11.8325 4.8975 11.75 4.98 11.705C6.4275 11.0075 6.6525 9.9275 6.66 9.845V9.83C6.675 9.74 6.6825 9.665 6.5775 9.5675C6.51 9.5 6.2775 9.35 6.09 9.23C6.0075 9.17 5.9325 9.125 5.8875 9.1025C5.6775 8.9525 5.5875 8.81 5.655 8.6225C5.7 8.495 5.82 8.45 5.94 8.45C5.9775 8.45 6.0225 8.4575 6.0525 8.465C6.1875 8.495 6.3225 8.5475 6.4425 8.5925C6.525 8.63 6.5925 8.6525 6.645 8.6675C6.66 8.675 6.6825 8.675 6.69 8.675C6.765 8.675 6.7875 8.6375 6.78 8.5625C6.78 8.54 6.78 8.5175 6.7725 8.495C6.7575 8.2325 6.735 7.775 6.765 7.355C6.825 6.725 7.0275 6.4025 7.2675 6.1325C7.3875 5.9975 7.935 5.42 8.9775 5.42C10.0275 5.42 10.5675 5.9975 10.6875 6.125C10.9275 6.4025 11.13 6.7175 11.19 7.355C11.2275 7.7975 11.1975 8.27 11.175 8.5325V8.555C11.1675 8.6375 11.19 8.6675 11.265 8.6675C11.28 8.6675 11.295 8.6675 11.31 8.66C11.3625 8.645 11.43 8.6225 11.5125 8.5925C11.625 8.5475 11.76 8.495 11.9025 8.465C11.94 8.45 11.9775 8.45 12.015 8.45C12.1425 8.45 12.255 8.5025 12.3 8.63C12.3675 8.81 12.2775 8.9525 12.0675 9.1025C12.03 9.1325 11.955 9.185 11.865 9.23C11.685 9.35 11.445 9.5 11.3775 9.5675C11.2725 9.665 11.28 9.74 11.295 9.83V9.845C11.31 9.9275 11.535 11.0075 12.975 11.705C13.0875 11.75 13.2375 11.84 12.9825 11.9825Z" fill="#F5F5F5"/>
</svg>
